PathFileType	4	(X/Y/Z)	s09c0203.trc
DataRate	CameraRate	NumFrames	NumMarkers	Units	OrigDataRate	OrigDataStartFrame	OrigNumFrames
200	200	4	50	mm	200	1750	2000
Frame#	Time	racr			lacr			c7			jug			rlel			rdr			llel			ldr			s2			lic			ric			lasi			rasi			rpsi			lpsi			rgt			lgt			rth1			rth2			rth3			rth4			rlfc			rmfc			rsh1			rsh2			rsh3			rsh4			rlmal			rmmal			rcal			rtoe			rmt5			lth1			lth2			lth4			lth3			llfc			lmfc			llmal			lmmal			lcal			lmt5			lsh1			lsh2			lsh3			lsh4			ltoe			SBIKE			LBIKE			RBIKE			
		X1	Y1	Z1	X2	Y2	Z2	X3	Y3	Z3	X4	Y4	Z4	X5	Y5	Z5	X6	Y6	Z6	X7	Y7	Z7	X8	Y8	Z8	X9	Y9	Z9	X10	Y10	Z10	X11	Y11	Z11	X12	Y12	Z12	X13	Y13	Z13	X14	Y14	Z14	X15	Y15	Z15	X16	Y16	Z16	X17	Y17	Z17	X18	Y18	Z18	X19	Y19	Z19	X20	Y20	Z20	X21	Y21	Z21	X22	Y22	Z22	X23	Y23	Z23	X24	Y24	Z24	X25	Y25	Z25	X26	Y26	Z26	X27	Y27	Z27	X28	Y28	Z28	X29	Y29	Z29	X30	Y30	Z30	X31	Y31	Z31	X32	Y32	Z32	X33	Y33	Z33	X34	Y34	Z34	X35	Y35	Z35	X36	Y36	Z36	X37	Y37	Z37	X38	Y38	Z38	X39	Y39	Z39	X40	Y40	Z40	X41	Y41	Z41	X42	Y42	Z42	X43	Y43	Z43	X44	Y44	Z44	X45	Y45	Z45	X46	Y46	Z46	X47	Y47	Z47	X48	Y48	Z48	X49	Y49	Z49	X50	Y50	Z50	
1750	8.7500	454.764366	1196.982897	-19.418454	555.068297	1181.561509	-354.293127	506.115364	1275.519518	-181.791538	463.507092	1133.185882	-194.459621	454.594456	969.076012	81.249204	676.254061	900.954854	-6.849230	473.564734	1025.196802	-574.624208	653.018905	893.487440	-486.584689	11.668068	1119.914295	-290.408612	163.650018	1110.274660	-419.593698	133.082942	1130.845631	-121.309508	197.720931	1055.831037	-387.528731	183.117096	1084.376629	-135.608920	30.801151	1152.649699	-229.139780	48.848484	1154.347279	-336.936229	120.034325	1019.767723	-73.844033	117.941926	966.346745	-449.107939	253.660201	969.699051	-76.431903	340.661975	962.105719	-83.504741	411.039780	908.398125	-82.402870	351.427372	987.011361	-109.510948	488.022948	830.873158	-108.543123	471.404822	807.860043	-207.108502	406.343338	772.175286	-77.681369	356.671367	698.710073	-89.868486	277.461783	661.256506	-87.237328	376.239507	680.128345	-118.856897	200.919663	593.478747	-85.201141	205.500639	601.210179	-162.093875	118.243892	610.476619	-118.748271	317.682617	436.922576	-133.016096	245.627105	476.302658	-65.842124	184.154122	843.543181	-445.879466	242.462694	782.962445	-432.843522	273.477566	799.802015	-418.507755	263.168707	695.127999	-422.835566	296.268943	607.469444	-402.334792	295.036028	591.281028	-305.586501	249.531791	244.479087	-421.497507	263.022494	252.536332	-350.376442	184.708266	203.373988	-380.605936	358.851100	159.354184	-432.593130	274.061228	509.437835	-430.264035	288.722056	424.548625	-423.612654	258.119072	340.976826	-423.727218	314.053745	423.940999	-392.510613	443.849892	184.497982	-361.363866	-65.336566	850.414464	-242.725998	21.129061	83.466276	-442.424280	21.070398	84.035067	-44.119943	
1751	8.7550	448.430147	1198.304293	-14.624838	556.572368	1181.012819	-351.015434	506.210952	1275.186212	-179.704742	463.802172	1132.814743	-192.369305	453.098082	968.382644	82.168635	675.416170	900.577808	-5.544110	475.951581	1027.386363	-573.364334	653.949574	893.396999	-487.739680	11.817981	1119.427806	-293.115415	165.633248	1108.377174	-419.762846	132.719873	1132.449200	-122.763410	199.043219	1054.251887	-387.391185	182.958003	1086.185060	-136.206611	30.858123	1152.880860	-231.320139	50.203997	1154.009042	-338.985021	120.248300	1022.938118	-73.613121	119.175931	964.512179	-450.256003	254.123947	975.755621	-77.016546	341.253485	969.767745	-84.384898	412.601422	917.333446	-82.263023	351.371470	994.627492	-110.679612	491.374358	840.830494	-107.699336	475.709920	816.827835	-206.546331	410.848597	780.793231	-77.353780	361.969945	706.411840	-89.584765	283.470224	667.162707	-87.100133	381.754836	687.811588	-118.691986	208.028985	597.358278	-85.036533	212.788832	605.318512	-161.910922	124.874517	612.557423	-118.460716	328.008754	443.499643	-133.091175	255.239669	481.229332	-65.878153	183.064035	842.358298	-446.884950	240.145521	780.573393	-433.825595	271.365687	797.026730	-418.725579	259.440210	692.588278	-424.148542	290.774423	604.096124	-402.821947	289.565630	588.066807	-306.108989	241.532466	242.140371	-421.649560	255.355814	249.925305	-350.661560	176.009207	202.085659	-380.480104	349.325473	154.996604	-432.377804	268.095922	506.701447	-430.448367	282.083763	421.750387	-423.674141	250.875849	338.435030	-423.919532	307.312958	420.970655	-392.447655	434.844963	178.737162	-361.245988	-65.315478	850.441583	-242.664850	21.138935	83.481218	-442.429316	21.063628	84.034314	-44.122176	
1752	8.7600	446.962409	1198.164122	-12.845898	558.081231	1180.427196	-347.820081	506.304242	1274.862543	-177.673328	463.894419	1132.333210	-190.244157	451.606924	967.885327	83.011321	674.561850	900.185547	-4.536495	477.636855	1029.461414	-571.685695	654.900108	893.135963	-489.291213	12.682415	1120.167228	-293.783184	167.547021	1106.582720	-419.771767	132.533463	1134.098291	-123.958340	200.349575	1052.713159	-387.246721	182.648108	1087.672042	-136.926464	31.201831	1153.178690	-233.175929	52.069507	1153.507413	-339.688634	120.859412	1026.065256	-73.295541	120.363041	962.917314	-451.370917	254.699269	981.691559	-77.533240	341.764858	977.061111	-85.268239	414.642293	925.897960	-82.236616	351.364481	1001.574165	-112.069747	494.438455	850.192741	-106.959506	479.577501	825.307628	-206.100048	414.797663	788.635848	-77.316164	367.421610	713.494912	-89.003259	289.591597	672.847875	-86.842007	387.716070	695.129852	-117.757476	214.998615	600.557285	-84.916919	219.831093	608.758987	-161.627792	131.468945	614.170715	-117.796816	338.430363	449.601837	-133.200642	265.056253	485.485104	-65.981684	182.186396	841.485772	-447.767664	238.206338	778.799919	-434.685200	269.488072	794.707543	-419.057164	256.003976	690.467526	-425.293309	285.758212	601.470445	-403.168349	284.780137	585.496636	-306.311297	233.130332	240.339022	-421.657591	247.571745	247.951529	-350.855391	167.059126	201.239534	-380.273571	339.577673	151.337584	-432.308862	262.625767	504.687205	-430.483609	275.681949	419.627171	-423.654764	243.637138	336.616649	-424.060875	300.928597	418.812808	-392.663056	425.408976	173.537523	-360.893548	-65.292385	850.446567	-242.621258	21.124027	83.500514	-442.428756	21.061039	84.028598	-44.129549	
1753	8.7650	445.460300	1198.135328	-11.046133	559.442587	1179.891768	-344.825065	506.395113	1274.549599	-175.702349	464.239193	1132.066427	-188.265240	450.069608	967.242711	83.733590	673.793194	899.959646	-3.775962	479.043214	1031.258601	-570.126393	655.844879	892.617374	-491.099568	12.726049	1120.313954	-295.419711	169.368699	1105.078958	-419.762321	132.420170	1135.685183	-125.022673	201.661160	1051.428112	-387.094265	182.376997	1089.103800	-137.350626	31.311132	1153.860563	-234.657786	52.665309	1152.994417	-341.401430	121.810319	1029.170875	-72.808769	121.463651	961.580584	-452.452160	255.153029	987.342017	-77.978786	342.216058	983.848449	-86.092516	415.900219	933.938279	-82.564067	351.381044	1006.852831	-114.004027	496.843489	859.027508	-106.278274	483.370642	833.489754	-206.602523	418.318862	796.087876	-76.682391	372.448294	719.844856	-88.515966	295.728173	677.170884	-86.758206	393.044471	701.811715	-117.001786	222.038569	603.049689	-84.665333	226.595993	611.388814	-161.335475	138.103429	614.577555	-118.069527	348.987051	455.347894	-133.414429	274.743139	489.324522	-65.968126	181.440593	840.970721	-448.574403	236.525467	777.459024	-435.376916	267.847314	792.926683	-419.336926	252.971357	688.772786	-426.048101	281.189581	599.492711	-403.384489	280.849111	583.680593	-306.128125	224.503711	239.020898	-421.668199	239.687048	246.616829	-350.940235	157.922460	200.955922	-380.067953	329.646632	148.384705	-432.123185	257.636641	503.249402	-430.390548	269.502654	418.048639	-423.514249	236.378774	335.482600	-424.041302	294.565022	416.692057	-392.159141	415.780664	169.113275	-360.692388	-65.295655	850.446625	-242.569670	21.124386	83.514122	-442.420181	21.055775	84.047385	-44.141450	
